# xmcd CD database file
#
# Track frame offsets:
#	150
#	18852
#	29160
#	47787
#	59445
#	69360
#	91165
#	111817
#	126255
#	136400
#	152665
#	167435
#	191130
#	211677
#	231537
#
# Disc length: 3469 seconds
#
# Revision: 2
# Processed by: cddbd v1.5.1PL2 Copyright (c) Steve Scherf et al.
# Submitted via: CDex 1.70beta1
#
DISCID=cf0d8b0f
DTITLE=喜多郎 - Super Best
DYEAR=1986
DGENRE=New Age
TTITLE0=絲綢之路
TTITLE1=鐘楼
TTITLE2=天地創造神
TTITLE3=遥かなる大河
TTITLE4=長城
TTITLE5=飛天
TTITLE6=シルクロード幻想
TTITLE7=光と影
TTITLE8=西に向かって
TTITLE9=静けさの中で
TTITLE10=流るる砂
TTITLE11=生命の泉
TTITLE12=敦煌からの想い
TTITLE13=TAO
TTITLE14=巡礼の旅Ⅱ
EXTD=heungsoon lee YEAR: 1986
EXTT0=
EXTT1=
EXTT2=
EXTT3=
EXTT4=
EXTT5=
EXTT6=
EXTT7=
EXTT8=
EXTT9=
EXTT10=
EXTT11=
EXTT12=
EXTT13=
EXTT14=
PLAYORDER=
